<svg width="76" height="76" xmlns="http://www.w3.org/2000/svg" xmlns:xlink="http://www.w3.org/1999/xlink" overflow="hidden"><defs><clipPath id="clip0"><rect x="753" y="214" width="76" height="76"/></clipPath></defs><g clip-path="url(#clip0)" transform="translate(-753 -214)"><path d="M804.015 252C804.015 259.188 798.188 265.015 791 265.015 783.812 265.015 777.985 259.188 777.985 252 777.985 244.812 783.812 238.985 791 238.985 798.188 238.985 804.015 244.812 804.015 252Z"/><path d="M819.975 227.68C819.975 230.356 817.806 232.525 815.13 232.525 812.454 232.525 810.285 230.356 810.285 227.68 810.285 225.004 812.454 222.835 815.13 222.835 817.806 222.835 819.975 225.004 819.975 227.68Z"/><path d="M804.585 218.893C804.585 221.568 802.416 223.738 799.74 223.738 797.064 223.738 794.895 221.568 794.895 218.893 794.895 216.217 797.064 214.048 799.74 214.048 802.416 214.048 804.585 216.217 804.585 218.893Z"/><path d="M786.82 218.94C786.82 221.616 784.651 223.785 781.975 223.785 779.299 223.785 777.13 221.616 777.13 218.94 777.13 216.264 779.299 214.095 781.975 214.095 784.651 214.095 786.82 216.264 786.82 218.94Z"/><path d="M771.525 227.87C771.525 230.546 769.356 232.715 766.68 232.715 764.004 232.715 761.835 230.546 761.835 227.87 761.835 225.194 764.004 223.025 766.68 223.025 769.356 223.025 771.525 225.194 771.525 227.87Z"/><path d="M762.69 243.26C762.69 245.936 760.521 248.105 757.845 248.105 755.169 248.105 753 245.936 753 243.26 753 240.584 755.169 238.415 757.845 238.415 760.521 238.415 762.69 240.584 762.69 243.26Z"/><path d="M762.785 261.025C762.785 263.701 760.616 265.87 757.94 265.87 755.264 265.87 753.095 263.701 753.095 261.025 753.095 258.349 755.264 256.18 757.94 256.18 760.616 256.18 762.785 258.349 762.785 261.025Z"/><path d="M771.715 276.32C771.715 278.996 769.546 281.165 766.87 281.165 764.194 281.165 762.025 278.996 762.025 276.32 762.025 273.644 764.194 271.475 766.87 271.475 769.546 271.475 771.715 273.644 771.715 276.32Z"/><path d="M787.105 285.107C787.105 287.783 784.936 289.953 782.26 289.953 779.584 289.953 777.415 287.783 777.415 285.107 777.415 282.432 779.584 280.263 782.26 280.263 784.936 280.263 787.105 282.432 787.105 285.107Z"/><path d="M804.823 285.06C804.823 287.736 802.653 289.905 799.977 289.905 797.302 289.905 795.133 287.736 795.133 285.06 795.133 282.384 797.302 280.215 799.977 280.215 802.653 280.215 804.823 282.384 804.823 285.06Z"/><path d="M820.165 276.13C820.165 278.806 817.996 280.975 815.32 280.975 812.644 280.975 810.475 278.806 810.475 276.13 810.475 273.454 812.644 271.285 815.32 271.285 817.996 271.285 820.165 273.454 820.165 276.13Z"/></g></svg>
